<svg width="32px" height="32px" version="1.1" viewBox="0 0 200 200" xmlns="http://www.w3.org/2000/svg">
 <defs>
  <style>.cls-1{fill:#007dba;}</style>
 </defs>
 <title>paciente</title>
 <g transform="scale(.667)" data-name="Capa 2">
  <g data-name="Capa 1">
   <path class="cls-1" d="m150 0a150 150 0 1 0 150 150 150 150 0 0 0-150-150zm0 48.7a46.5 46.5 0 1 1-46.5 46.5 46.5 46.5 0 0 1 46.5-46.5zm0 215c-45.5 0-87.9-24.2-111-63.1a2 2 0 0 1 0-2 127 127 0 0 1 72.4-57.2 2 2 0 0 1 2 0.49c11.8 11.6 31.7 24.6 36.4 27.6 4.42-2.64 22.1-13.6 36.3-27.6a2 2 0 0 1 2-0.49 127 127 0 0 1 72.4 57.2 2 2 0 0 1 0 2c-22.8 38.9-65.2 63.1-111 63.1z" fill="#007dba"/>
  </g>
 </g>
</svg>
